<svg xmlns="http://www.w3.org/2000/svg" xmlns:xlink="http://www.w3.org/1999/xlink" class="icon" viewBox="0 0 1024 1024" id="icon-upload_icon"><defs><style type="text/css"></style></defs><path d="M465.8176 253.7472L343.5008 377.4976a34.1504 34.1504 0 0 1-48.5376-47.9744l180.736-182.8352a34.1504 34.1504 0 0 1 48.5376 0l180.736 182.8352a34.1504 34.1504 0 1 1-48.64 47.9744l-122.2656-123.7504v392.3456a34.1504 34.1504 0 0 1-68.2496 0V253.7472z m214.8352 353.3312a34.1504 34.1504 0 0 1 0-68.2496h120.4736c72.192 0 130.56 59.0336 130.56 131.6352v73.1648c0 72.6016-58.368 131.6352-130.56 131.6352H198.7584c-72.192 0-130.5088-59.0336-130.5088-131.6352v-73.1648c0-72.6016 58.368-131.6352 130.56-131.6352h120.4224a34.1504 34.1504 0 0 1 0 68.2496H198.7584c-34.304 0-62.208 28.3136-62.208 63.3856v73.1648c0 35.072 27.9552 63.3856 62.208 63.3856h602.368c34.304 0 62.2592-28.3136 62.2592-63.3856v-73.1648c0-35.072-27.9552-63.3856-62.2592-63.3856h-120.4736z" p-id="24735"></path></svg>